<svg xmlns="http://www.w3.org/2000/svg" viewBox="-2 2 23 11">

<path d="M -1 11 L -1 12 L 7 12 L 7 11 L -1 11" 
	fill="blue" stroke="black" stroke-width="0.05"/>
<path d="M 7 4 L 8 4 L 7 5 L 7 4" 
	fill="khaki" stroke="black" stroke-width="0.05"/>
<path d="M 6 3 L 4 3 L 3 4 L 3 5 L 4 6 L 6 6 L 7 5 L 7 4 L 6 3" 
	fill="burlywood" stroke="black" stroke-width="0.05"/>
<path d="M 6 7 L 6 6 L 4 6 L 4 7 L 6 7" 
	fill="palegoldenrod" stroke="black" stroke-width="0.05"/>
<path d="M 6 7 L 7 8 L 7 9 L 5 11 A 1.5 1 0 0 1 3 11 A 1.5 1 0 0 1 1 11 L 0 10 L 4 10 L 5 9 L 5 8 L 4 7 L 6 7" 
	fill="burlywood" stroke="black" stroke-width="0.05"/>
<path d="M 4 7 L 5 8 L 5 9 L 4 10 L 0 10 L -1 9 L 1 7 L 4 7" 
	fill="forestgreen" stroke="black" stroke-width="0.05"/>
<path d="M 1 7 L 0 7 L -1 5 L -1 9 L 1 7" 
	fill="green" stroke="black" stroke-width="0.05"/>
<path d="M 6 4 A 1 1 0 0 0 5.9 4.1 A 1 1 0 0 0 6 4.2 A 1 1 0 0 0 6.1 4.1 A 1 1 0 0 0 6 4" 
	fill="black" stroke="black" stroke-width="0.0001"/>



<path d="M 13 4 L 14 4 L 14 5 L 13 4" 
	fill="khaki" stroke="black" stroke-width="0.05"/>
<path d="M 14 5 L 13 5 L 13.3 4.3 L 14 5" 
	fill="red" stroke="black" stroke-width="0.05"/>
<path d="M 14 4 L 15 3 L 15 3.4 L 16 3 L 16 4 L 17 4 L 16.6 4.2 L 16 4.2 L 15 4 L 14 4" 
	fill="red" stroke="black" stroke-width="0.05"/>
<path d="M 14 4 L 15 4 L 17 6 L 19 6 L 20 5 L 20 7 L 18 9 L 16 10 L 15 9 L 14 7 L 14 4" 
	fill="azure" stroke="black" stroke-width="0.05"/>
<path d="M 14.5 4.5 A 1 1 0 0 0 14.4 4.6 A 1 1 0 0 0 14.5 4.7 A 1 1 0 0 0 14.6 4.6 A 1 1 0 0 0 14.5 4.5" 
	fill="black" stroke="black" stroke-width="0.0001"/>
<path d="M 15 7 L 16 8 L 18 8 L 18 7 L 18 8 L 16 8 L 15 7" 
	fill="black" stroke="black" stroke-width="0.05"/>
<path d="M 16 10 L 16 12 L 16 11 L 15 12 L 16 11 L 15 11 L 16 11 L 16 10" 
	fill="black" stroke="black" stroke-width="0.05"/>
<path d="M 18 9 L 19 10 L 19 11 L 19 10 L 18 11 L 19 10 L 18 10 L 19 10 L 18 9" 
	fill="black" stroke="black" stroke-width="0.05"/>
</svg>


